<?xml version="1.0" encoding="UTF-8"?>
<svg xmlns="http://www.w3.org/2000/svg" version="1.1" width="500" height="500" viewBox="0 0 500 500"><rect x="0" y="0" width="500" height="500" fill="#ffffff"/><g transform="scale(20)"><g transform="translate(0,0)"><path fill-rule="evenodd" d="M8 0L8 4L9 4L9 5L8 5L8 7L9 7L9 6L10 6L10 9L11 9L11 10L9 10L9 9L7 9L7 8L4 8L4 9L3 9L3 10L2 10L2 8L0 8L0 9L1 9L1 10L0 10L0 14L1 14L1 13L3 13L3 15L2 15L2 16L0 16L0 17L2 17L2 16L4 16L4 17L5 17L5 16L4 16L4 13L3 13L3 12L5 12L5 13L7 13L7 14L6 14L6 15L7 15L7 16L6 16L6 17L8 17L8 18L10 18L10 17L11 17L11 19L10 19L10 20L9 20L9 19L8 19L8 21L11 21L11 22L10 22L10 23L8 23L8 25L9 25L9 24L10 24L10 25L11 25L11 24L12 24L12 25L13 25L13 24L12 24L12 23L13 23L13 22L12 22L12 21L11 21L11 19L12 19L12 17L13 17L13 18L15 18L15 16L16 16L16 19L15 19L15 20L16 20L16 21L14 21L14 20L13 20L13 21L14 21L14 23L15 23L15 25L16 25L16 23L20 23L20 22L19 22L19 21L21 21L21 19L22 19L22 21L23 21L23 22L22 22L22 23L21 23L21 24L18 24L18 25L21 25L21 24L22 24L22 25L25 25L25 24L24 24L24 22L25 22L25 21L24 21L24 20L25 20L25 19L23 19L23 18L21 18L21 16L22 16L22 17L24 17L24 18L25 18L25 17L24 17L24 16L23 16L23 14L22 14L22 13L23 13L23 11L22 11L22 13L20 13L20 14L18 14L18 16L17 16L17 13L19 13L19 11L18 11L18 10L17 10L17 9L16 9L16 8L17 8L17 4L16 4L16 2L15 2L15 1L17 1L17 0L14 0L14 1L13 1L13 0L11 0L11 1L12 1L12 2L11 2L11 3L10 3L10 2L9 2L9 0ZM13 2L13 3L11 3L11 4L10 4L10 5L11 5L11 7L12 7L12 6L13 6L13 9L12 9L12 8L11 8L11 9L12 9L12 11L10 11L10 12L9 12L9 14L7 14L7 15L9 15L9 14L10 14L10 16L8 16L8 17L10 17L10 16L11 16L11 17L12 17L12 16L13 16L13 17L14 17L14 16L15 16L15 15L14 15L14 14L15 14L15 13L16 13L16 12L18 12L18 11L17 11L17 10L16 10L16 11L15 11L15 12L14 12L14 10L15 10L15 8L14 8L14 6L15 6L15 7L16 7L16 5L14 5L14 4L13 4L13 3L15 3L15 2ZM11 4L11 5L12 5L12 4ZM19 8L19 9L20 9L20 11L21 11L21 9L22 9L22 10L23 10L23 9L25 9L25 8L21 8L21 9L20 9L20 8ZM5 9L5 10L7 10L7 9ZM13 9L13 10L14 10L14 9ZM1 10L1 12L2 12L2 10ZM8 10L8 11L9 11L9 10ZM5 11L5 12L7 12L7 11ZM12 11L12 12L13 12L13 11ZM24 12L24 13L25 13L25 12ZM10 13L10 14L11 14L11 16L12 16L12 15L13 15L13 14L14 14L14 13L13 13L13 14L12 14L12 13ZM20 14L20 15L19 15L19 16L21 16L21 15L22 15L22 14ZM17 17L17 20L20 20L20 17ZM18 18L18 19L19 19L19 18ZM16 21L16 22L15 22L15 23L16 23L16 22L17 22L17 21ZM10 23L10 24L11 24L11 23ZM0 0L0 7L7 7L7 0ZM1 1L1 6L6 6L6 1ZM2 2L2 5L5 5L5 2ZM18 0L18 7L25 7L25 0ZM19 1L19 6L24 6L24 1ZM20 2L20 5L23 5L23 2ZM0 18L0 25L7 25L7 18ZM1 19L1 24L6 24L6 19ZM2 20L2 23L5 23L5 20Z" fill="#000000"/></g></g></svg>
